<svg xmlns="http://www.w3.org/2000/svg" width="1024" height="1024" viewBox="0 0 1024 1024">
  <defs>
    <!-- Subtle grunge noise -->
    <filter id="grunge" x="-20%" y="-20%" width="140%" height="140%">
      <feTurbulence type="fractalNoise" baseFrequency="0.9" numOctaves="3" seed="7" result="noise"/>
      <feColorMatrix type="matrix" values="
        1 0 0 0 0
        0 1 0 0 0
        0 0 1 0 0
        0 0 0 18 -9" result="contrast"/>
      <feComposite in="SourceGraphic" in2="contrast" operator="arithmetic" k1="1" k2="0" k3="0" k4="0"/>
    </filter>

    <!-- Distress mask (cuts holes into paint) -->
    <mask id="distressMask">
      <rect width="1024" height="1024" fill="white"/>
      <g opacity="0.9">
        <circle cx="220" cy="290" r="18" fill="black"/>
        <circle cx="270" cy="320" r="10" fill="black"/>
        <circle cx="760" cy="420" r="16" fill="black"/>
        <circle cx="690" cy="470" r="9" fill="black"/>
        <circle cx="520" cy="760" r="14" fill="black"/>
        <circle cx="560" cy="720" r="8" fill="black"/>
        <circle cx="355" cy="650" r="11" fill="black"/>
        <circle cx="410" cy="610" r="7" fill="black"/>
        <rect x="120" y="520" width="90" height="14" rx="7" fill="black" transform="rotate(-18 120 520)"/>
        <rect x="780" y="610" width="120" height="16" rx="8" fill="black" transform="rotate(12 780 610)"/>
        <rect x="460" y="250" width="160" height="12" rx="6" fill="black" transform="rotate(-8 460 250)"/>
      </g>
    </mask>

    <!-- Drop shadow -->
    <filter id="shadow" x="-20%" y="-20%" width="140%" height="140%">
      <feDropShadow dx="0" dy="18" stdDeviation="18" flood-color="#000" flood-opacity="0.35"/>
    </filter>
  </defs>

  <!-- Background -->
  <rect width="1024" height="1024" fill="#0f1115"/>

  <!-- Urban "badge" -->
  <g filter="url(#shadow)">
    <rect x="120" y="140" width="784" height="744" rx="76" fill="#171a21" stroke="#2a2f3a" stroke-width="10"/>
  </g>

  <!-- Paint layer -->
  <g mask="url(#distressMask)" filter="url(#grunge)">
    <!-- Slightly uneven stencil plate -->
    <rect x="160" y="180" width="704" height="664" rx="60" fill="#1e2430"/>

    <!-- DT initials -->
    <g fill="#e7e3d8">
      <!-- D -->
      <path d="M300 310 H470
               C570 310 640 380 640 512
               C640 645 570 714 470 714
               H300 Z
               M380 390 V634 H458
               C520 634 560 590 560 512
               C560 434 520 390 458 390 Z"/>
      <!-- T -->
      <path d="M690 310 H860 V390 H790 V714 H710 V390 H690 Z"/>
    </g>

    <!-- Cracks / breaks -->
    <g stroke="#0f1115" stroke-width="10" stroke-linecap="round" opacity="0.9">
      <path d="M250 520 L360 470 L430 520 L510 460" />
      <path d="M540 660 L600 600 L680 650 L760 590" />
      <path d="M620 420 L700 470 L760 430 L830 480" />
      <path d="M410 310 L450 380 L410 440" />
    </g>

    <!-- Paint chips -->
    <g fill="#0f1115" opacity="0.85">
      <path d="M260 360 l28 -14 l18 26 l-30 16 z"/>
      <path d="M585 365 l22 -12 l20 22 l-24 14 z"/>
      <path d="M780 560 l34 -18 l22 30 l-36 18 z"/>
      <path d="M420 760 l26 -12 l18 24 l-28 14 z"/>
    </g>
  </g>

  <!-- Small caption (optional) -->
  <text x="512" y="900" text-anchor="middle"
        font-family="system-ui, Segoe UI, Arial" font-size="44"
        fill="#8f98ad" letter-spacing="6">DINO THEMES</text>
</svg>